# xmcd
#
# Track frame offsets:
#	150
#	10562
#	23198
#	34365
#	46658
#	55837
#	65357
#	77417
#	87448
#	102078
#	113288
#	126196
#	138851
#	149370
#	159830
#	170315
#	180071
#	190958
#	200412
#	214196
#	224947
#	235474
#	247876
#	260608
#	269011
#
# Disc length: 3715 seconds
#
# Revision: 1
# Processed by: cddbd v1.5.2PL0 Copyright (c) Steve Scherf et al.
# Submitted via: audiograbber 1.83.01
#
DISCID=550e8119
DTITLE=Lonnie Barron and May Hawks - A Memory or Two
DYEAR=1900
DGENRE=Country
TTITLE0=I Better Go
TTITLE1=A Memory or Two
TTITLE2=You're Not the First Girl
TTITLE3=Sentimental Me, Sentimental She
TTITLE4=Go On, It's Okay
TTITLE5=Don't Doubt My Love
TTITLE6=Teenage Queen
TTITLE7=Please Blue Heart
TTITLE8=Jealous Love
TTITLE9=Year After Year
TTITLE10=Wasted Years
TTITLE11=Meet Me Down in Nashville
TTITLE12=Straighten Up and Fly Right
TTITLE13=Baby, You're a Bygone Now
TTITLE14=No Tears Little Darlin'
TTITLE15=I Ain't No Spring Chicken
TTITLE16=Talk a Little Louder
TTITLE17=Forever and a Day
TTITLE18=Pastime Girl
TTITLE19=Don't Let Them See My Face
TTITLE20=Jealousy vs. Bossy
TTITLE21=Soft Lips and Poison Kisses
TTITLE22=The Card From My Bouquet
TTITLE23=Hard to Get
TTITLE24=Jealousy vs. Bossy
EXTD=Old Homestead Records
EXTT0=
EXTT1=
EXTT2=
EXTT3=
EXTT4=
EXTT5=
EXTT6=
EXTT7=
EXTT8=
EXTT9=
EXTT10=
EXTT11=
EXTT12=
EXTT13=
EXTT14=
EXTT15=
EXTT16=
EXTT17=
EXTT18=
EXTT19=
EXTT20=
EXTT21=
EXTT22=
EXTT23=
EXTT24=
PLAYORDER=
